HIERARCHY
ROOT Hips
{
	OFFSET	0.00	0.00	0.00
	CHANNELS 6 Xposition Yposition Zposition Zrotation Xrotation Yrotation
	JOINT LeftUpLeg
	{
		OFFSET	 0.126116	-0.065224	 0.014019
		CHANNELS 3 Zrotation Xrotation Yrotation
		JOINT LeftLeg
		{
			OFFSET	 0.000000	 0.569914	 0.000000
			CHANNELS 3 Zrotation Xrotation Yrotation
			JOINT LeftFoot
			{
				OFFSET	 0.000000	 0.544423	 0.000000
				CHANNELS 3 Zrotation Xrotation Yrotation
				JOINT LeftToeBase
				{
					OFFSET	 0.000000	 0.207117	 0.000000
					CHANNELS 3 Zrotation Xrotation Yrotation
					End Site
					{
						OFFSET	 0.000000	 0.207117	 0.000000
					}
				}
			}
		}
	}
	JOINT RightUpLeg
	{
		OFFSET	-0.124023	-0.065224	 0.008373
		CHANNELS 3 Zrotation Xrotation Yrotation
		JOINT RightLeg
		{
			OFFSET	 0.000000	 0.570047	 0.000000
			CHANNELS 3 Zrotation Xrotation Yrotation
			JOINT RightFoot
			{
				OFFSET	 0.000000	 0.544354	 0.000000
				CHANNELS 3 Zrotation Xrotation Yrotation
				JOINT RightToeBase
				{
					OFFSET	 0.000000	 0.207540	 0.000000
					CHANNELS 3 Zrotation Xrotation Yrotation
					End Site
					{
						OFFSET	 0.000000	 0.207540	 0.000000
					}
				}
			}
		}
	}
	JOINT Spine
	{
		OFFSET	 0.000184	 0.117403	 0.007763
		CHANNELS 3 Zrotation Xrotation Yrotation
		JOINT Spine1
		{
			OFFSET	 0.000000	 0.137269	 0.000000
			CHANNELS 3 Zrotation Xrotation Yrotation
			JOINT Spine2
			{
				OFFSET	 0.000000	 0.156879	 0.000000
				CHANNELS 3 Zrotation Xrotation Yrotation
				JOINT LeftShoulder
				{
					OFFSET	 0.080501	 0.160143	 0.002496
					CHANNELS 3 Zrotation Xrotation Yrotation
					JOINT LeftArm
					{
						OFFSET	 0.000000	 0.164363	 0.000000
						CHANNELS 3 Zrotation Xrotation Yrotation
						JOINT LeftForeArm
						{
							OFFSET	 0.000000	 0.364576	 0.000000
							CHANNELS 3 Zrotation Xrotation Yrotation
							JOINT LeftHand
							{
								OFFSET	 0.000000	 0.360812	 0.000000
								CHANNELS 3 Zrotation Xrotation Yrotation
								JOINT LeftHandIndex1
								{
									OFFSET	 0.000000	 0.086006	 0.000000
									CHANNELS 3 Zrotation Xrotation Yrotation
									JOINT LeftHandIndex2
									{
										OFFSET	 0.000000	 0.047237	 0.000000
										CHANNELS 3 Zrotation Xrotation Yrotation
										JOINT LeftHandIndex3
										{
											OFFSET	-0.004284	 0.038165	 0.000551
											CHANNELS 3 Zrotation Xrotation Yrotation
											End Site
											{
												OFFSET	-0.004284	 0.038165	 0.000551
											}
										}
									}
								}
							}
						}
					}
				}
				JOINT Neck
				{
					OFFSET	 0.000000	 0.176489	 0.000000
					CHANNELS 3 Zrotation Xrotation Yrotation
					JOINT Head
					{
						OFFSET	 0.000000	 0.077941	 0.001747
						CHANNELS 3 Zrotation Xrotation Yrotation
						End Site
						{
							OFFSET	 0.000000	 0.077941	 0.001747
						}
					}
				}
				JOINT RightShoulder
				{
					OFFSET	-0.080363	 0.159706	-0.000306
					CHANNELS 3 Zrotation Xrotation Yrotation
					JOINT RightArm
					{
						OFFSET	 0.000000	 0.164196	 0.000000
						CHANNELS 3 Zrotation Xrotation Yrotation
						JOINT RightForeArm
						{
							OFFSET	 0.000000	 0.365611	 0.000000
							CHANNELS 3 Zrotation Xrotation Yrotation
							JOINT RightHand
							{
								OFFSET	 0.000000	 0.360648	 0.000000
								CHANNELS 3 Zrotation Xrotation Yrotation
								JOINT RightHandIndex1
								{
									OFFSET	 0.000000	 0.069977	 0.000000
									CHANNELS 3 Zrotation Xrotation Yrotation
									JOINT RightHandIndex2
									{
										OFFSET	 0.000000	 0.052305	 0.000000
										CHANNELS 3 Zrotation Xrotation Yrotation
										JOINT RightHandIndex3
										{
											OFFSET	 0.009002	 0.042196	 0.000782
											CHANNELS 3 Zrotation Xrotation Yrotation
											End Site
											{
												OFFSET	 0.009002	 0.042196	 0.000782
											}
										}
									}
								}
							}
						}
					}
				}
			}
		}
	}
}
MOTION
Frames:    7
Frame Time: 0.03333334
-0.005737	 1.233258	 0.011229	 1.687426	 0.382080	 172.303100	-158.782600	 9.726491	-34.080430	 3.838085	-14.113180	 2.606036	-9.070134	 58.188880	 2.286297	 1.162021	 26.689190	-2.659656	 170.225400	 9.674991	 25.920230	-2.442622	-29.358880	 7.852180	 13.528470	 75.820660	-9.185225	-1.288989	 28.372430	 2.710516	 2.280788	 6.386315	 4.047053	-1.381347	 3.510971	 2.226574	 3.492730	-2.877525	-3.423001	-113.195400	 6.483884	 92.934970	 22.762380	 47.635830	 2.566105	 5.034692	-0.260210	-0.072421	 19.317730	 12.146310	 18.791480	 0.561178	 8.652261	-0.355721	-5.949625	 13.577840	 1.517980	 4.985970	-3.513325	-0.334722	 3.185830	-6.825668	 0.871011	-1.240318	-5.475573	 2.463022	 123.459200	 10.373560	-96.383450	-6.877678	 39.958030	-2.257828	-5.066836	-0.199195	 0.049736	 0.953016	 4.648855	-13.082210	-2.307748	 4.845225	 0.896267	 12.530440	 22.792520	-5.133874	-8.499888	 13.014950	-0.519991
-0.005887	 1.232785	 0.012000	 1.536961	 0.064529	 171.556900	-158.645300	 10.008510	-34.930830	 3.961901	-14.548750	 2.322057	-9.670714	 58.436370	 2.916025	 1.161343	 26.680010	-2.659387	 170.061200	 10.315320	 25.525370	-2.466273	-29.688190	 7.524787	 12.127300	 75.862200	-7.720500	-1.288340	 28.363890	 2.710242	 2.430345	 6.169513	 4.627882	-2.825735	 3.447498	 3.038601	 4.174200	-3.015041	-3.258960	-112.899700	 6.525508	 92.966090	 22.892270	 47.833540	 2.797881	 5.002626	-0.258511	-0.072578	 19.515790	 12.382300	 20.351850	 0.790754	 7.939703	-0.353470	-5.946713	 13.737900	 1.535144	 4.997547	-3.258934	-0.328598	 3.177439	-6.831914	 0.919339	-1.247432	-5.616869	 2.833447	 123.260900	 10.405830	-96.362680	-6.487122	 40.569670	-2.298026	-5.033136	-0.197816	 0.049778	 0.192788	 4.198962	-11.127020	-2.390777	 5.105275	 0.893064	 12.580830	 23.478580	-5.300033	-8.504728	 13.576510	-0.555451
-0.006130	 1.232477	 0.012765	 1.409281	-0.264329	 170.839600	-158.498300	 10.268530	-35.734500	 4.062922	-14.902830	 2.051043	-10.199550	 58.641490	 3.470288	 1.160703	 26.671360	-2.659133	 169.942100	 10.919540	 25.156130	-2.481029	-29.919740	 7.219767	 10.801720	 75.845790	-6.346917	-1.287728	 28.355840	 2.709983	 2.586281	 5.938824	 5.210704	-4.191149	 3.389420	 3.845335	 4.816322	-3.163865	-3.105758	-112.621000	 6.564864	 92.995170	 23.025230	 48.019880	 3.011435	 4.969159	-0.256823	-0.072689	 19.708530	 12.630240	 21.874070	 1.007005	 7.267508	-0.348712	-5.944012	 13.888790	 1.551327	 5.008433	-3.019110	-0.322873	 3.169534	-6.837810	 0.964895	-1.253273	-5.750214	 3.182912	 123.074000	 10.436180	-96.343020	-6.098347	 41.155790	-2.352765	-4.998374	-0.196433	 0.049982	-0.524619	 3.733426	-9.229083	-2.469070	 5.350439	 0.890388	 12.630610	 24.125600	-5.458178	-8.508975	 14.106100	-0.588925
-0.006378	 1.232215	 0.013479	 1.291863	-0.573806	 170.194300	-158.357700	 10.513540	-36.460360	 4.152882	-15.217100	 1.807061	-10.677490	 58.821080	 3.969183	 1.160128	 26.663560	-2.658905	 169.843000	 11.474500	 24.825490	-2.493205	-30.114130	 6.945469	 9.595280	 75.815220	-5.097209	-1.287177	 28.348590	 2.709749	 2.721922	 5.717041	 5.756033	-5.424735	 3.338833	 4.595675	 5.394354	-3.314574	-2.969068	-112.369900	 6.600448	 93.021220	 23.145330	 48.179180	 3.205157	 4.936170	-0.255111	-0.072847	 19.888680	 12.876230	 23.281580	 1.201691	 6.661690	-0.342241	-5.941614	 14.024700	 1.565906	 5.018217	-2.803081	-0.317756	 3.162418	-6.843124	 1.005928	-1.257811	-5.870447	 3.497905	 122.905500	 10.463490	-96.325200	-5.738212	 41.700810	-2.410974	-4.966919	-0.195194	 0.050167	-1.164044	 3.275603	-7.482518	-2.539613	 5.571283	 0.888266	 12.677370	 24.708590	-5.601926	-8.512535	 14.583270	-0.619119
-0.006634	 1.231988	 0.014142	 1.183543	-0.867671	 169.609800	-158.222300	 10.748430	-37.119800	 4.234565	-15.501580	 1.586545	-11.109700	 58.981680	 4.418229	 1.159606	 26.656510	-2.658698	 169.760400	 11.988620	 24.527840	-2.503294	-30.278380	 6.697503	 8.497607	 75.773980	-3.960439	-1.286678	 28.342030	 2.709538	 2.839152	 5.501602	 6.264687	-6.532374	 3.291814	 5.291902	 5.911490	-3.463712	-2.846407	-112.142500	 6.632757	 93.044650	 23.247750	 48.322380	 3.386883	 4.905044	-0.253524	-0.072973	 20.058870	 13.112960	 24.581540	 1.377926	 6.112872	-0.334598	-5.939474	 14.147770	 1.579110	 5.027058	-2.607460	-0.313155	 3.155978	-6.847941	 1.043082	-1.261328	-5.979370	 3.783272	 122.753000	 10.488160	-96.309010	-5.405088	 42.208440	-2.470315	-4.936349	-0.194004	 0.050197	-1.735459	 2.826677	-5.877476	-2.603509	 5.771268	 0.886579	 12.721320	 25.236630	-5.733190	-8.515542	 15.015470	-0.646499
-0.006897	 1.231792	 0.014745	 1.084967	-1.144451	 169.087000	-158.093300	 10.973600	-37.711350	 4.308966	-15.760020	 1.390077	-11.494320	 59.126150	 4.815531	 1.159140	 26.650200	-2.658513	 169.692800	 12.460840	 24.263350	-2.511548	-30.415630	 6.476189	 7.514312	 75.725610	-2.942189	-1.286232	 28.336160	 2.709350	 2.938577	 5.294149	 6.729978	-7.505057	 3.243324	 5.925063	 6.364161	-3.604050	-2.737518	-111.939200	 6.661733	 93.065510	 23.329740	 48.456180	 3.558290	 4.873155	-0.251875	-0.073161	 20.220450	 13.331140	 25.761460	 1.535436	 5.622127	-0.326333	-5.937583	 14.257780	 1.590915	 5.034946	-2.432593	-0.309068	 3.150223	-6.852252	 1.076292	-1.263993	-6.076791	 4.038454	 122.616600	 10.510170	-96.294460	-5.099960	 42.675010	-2.530868	-4.906802	-0.192831	 0.050222	-2.238345	 2.394502	-4.428629	-2.660640	 5.950037	 0.885261	 12.761920	 25.708710	-5.851433	-8.518055	 15.401880	-0.671005
-0.007172	 1.231645	 0.015280	 1.001153	-1.401739	 168.629700	-157.970900	 11.184900	-38.228950	 4.374344	-15.986610	 1.219183	-11.823000	 59.252400	 5.153534	 1.158734	 26.644700	-2.658352	 169.644000	 12.882860	 24.034210	-2.517182	-30.518250	 6.284064	 6.657623	 75.668650	-2.055917	-1.285844	 28.331050	 2.709186	 3.025424	 5.096434	 7.143072	-8.328948	 3.195071	 6.484504	 6.746455	-3.730820	-2.643194	-111.762000	 6.687044	 93.083600	 23.386920	 48.587010	 3.719745	 4.843692	-0.250300	-0.073276	 20.370780	 13.520410	 26.803210	 1.672733	 5.194232	-0.318026	-5.935954	 14.353670	 1.601206	 5.041812	-2.280159	-0.305526	 3.145210	-6.856011	 1.105241	-1.265957	-6.161675	 4.260922	 122.497800	 10.529330	-96.281750	-4.824819	 43.091610	-2.591563	-4.878459	-0.191731	 0.050421	-2.670579	 1.990276	-3.159277	-2.710454	 6.105873	 0.884257	 12.798340	 26.120270	-5.955225	-8.520109	 15.738780	-0.692394
